<svg width="38" height="38" viewBox="0 0 38 38" fill="none" xmlns="http://www.w3.org/2000/svg">
<g id="Frame">
<path id="Vector" d="M32.1681 6.4027C29.7436 5.28826 27.1478 4.4685 24.434 4.00236C24.3859 3.99165 24.3378 4.01844 24.3109 4.0613C23.979 4.65603 23.6045 5.43292 23.3475 6.04372C20.425 5.60437 17.5188 5.60437 14.6606 6.04372C14.4037 5.4222 14.0183 4.65603 13.6811 4.0613C13.6543 4.01844 13.6062 3.99701 13.558 4.00236C10.8443 4.4685 8.24843 5.28826 5.82379 6.4027C5.80239 6.41341 5.78634 6.42948 5.77028 6.44556C0.846081 13.8127 -0.502718 20.9976 0.155626 28.0968C0.155626 28.129 0.177034 28.1665 0.203797 28.1879C3.4527 30.5775 6.60525 32.0294 9.69357 32.9886C9.74174 33.0046 9.79527 32.9886 9.82739 32.9457C10.5607 31.9438 11.2083 30.8935 11.7703 29.7846C11.8024 29.7202 11.7703 29.6453 11.7061 29.6184C10.6731 29.2273 9.68821 28.745 8.74084 28.2039C8.66592 28.161 8.66056 28.0539 8.73015 28.0003C8.92817 27.8503 9.12621 27.695 9.3189 27.5395C9.35101 27.5128 9.39919 27.5073 9.44202 27.5235C15.6615 30.3686 22.3947 30.3686 28.5393 27.5235C28.5822 27.5021 28.6303 27.5073 28.6625 27.5395C28.855 27.695 29.0532 27.8557 29.2512 28.0003C29.3207 28.0539 29.3155 28.161 29.2405 28.2039C28.293 28.7558 27.3083 29.2273 26.2753 29.6184C26.2056 29.6453 26.1789 29.7202 26.211 29.7898C26.7838 30.899 27.4313 31.949 28.1486 32.9511C28.1808 32.9938 28.2342 33.01 28.2825 32.9938C31.3867 32.0349 34.534 30.5828 37.7881 28.1932C37.815 28.1717 37.8365 28.1398 37.8365 28.1076C38.6286 19.8992 36.509 12.7732 32.2165 6.45629C32.2058 6.43485 32.1896 6.41877 32.1681 6.41341V6.4027ZM12.7016 23.7783C10.8283 23.7783 9.28679 22.0585 9.28679 19.9421C9.28679 17.8257 10.8015 16.1058 12.7016 16.1058C14.6017 16.1058 16.1485 17.8418 16.1164 19.9421C16.1164 22.0531 14.6017 23.7783 12.7016 23.7783ZM25.3279 23.7783C23.4546 23.7783 21.913 22.0585 21.913 19.9421C21.913 17.8257 23.4277 16.1058 25.3279 16.1058C27.2281 16.1058 28.7749 17.8418 28.7428 19.9421C28.7428 22.0531 27.244 23.7783 25.3279 23.7783Z" fill="white"/>
</g>
</svg>
