<svg width="38" height="38" viewBox="0 0 38 38" fill="none" xmlns="http://www.w3.org/2000/svg">
<path fill-rule="evenodd" clip-rule="evenodd" d="M19 0C8.50274 0 0 8.71665 0 19.4779C0 28.0869 5.4469 35.3808 12.9932 37.9635C13.938 38.1428 14.2879 37.5449 14.2879 37.0188C14.2879 36.5525 14.2762 35.3329 14.2645 33.7069C8.98095 34.8786 7.86124 31.1001 7.86124 31.1001C6.99814 28.8522 5.75013 28.2543 5.75013 28.2543C4.02392 27.0468 5.87845 27.0706 5.87845 27.0706C7.77961 27.2142 8.79433 29.0793 8.79433 29.0793C10.4856 32.0566 13.2381 31.1957 14.3229 30.6937C14.4978 29.4382 14.9877 28.5773 15.5242 28.0869C11.302 27.5967 6.86985 25.9228 6.86985 18.4616C6.86985 16.3333 7.60466 14.5995 8.82933 13.2364C8.63104 12.7462 7.97788 10.7613 9.01593 8.08294C9.01593 8.08294 10.6139 7.55683 14.2412 10.0798C15.7575 9.6493 17.3787 9.43407 19 9.42212C20.6095 9.42212 22.2425 9.6493 23.7587 10.0798C27.386 7.55683 28.9839 8.08294 28.9839 8.08294C30.0221 10.7613 29.369 12.7462 29.1705 13.2364C30.3836 14.5995 31.1184 16.3333 31.1184 18.4616C31.1184 25.9467 26.6745 27.5849 22.4407 28.0751C23.1171 28.673 23.7355 29.8687 23.7355 31.6861C23.7355 34.2927 23.712 36.3853 23.712 37.0308C23.712 37.5569 24.0502 38.1548 25.0184 37.9635C32.5647 35.3808 38 28.0869 38 19.4899C38 8.71665 29.4971 0 19 0Z" fill="white"/>
</svg>
