<svg width="202" height="42" viewBox="0 0 202 42" fill="none" xmlns="http://www.w3.org/2000/svg">
<path fill-rule="evenodd" clip-rule="evenodd" d="M60.4228 20.8363V30.6726H62.2271H64.0314L63.9909 24.1565C63.9548 18.3497 63.9693 17.6634 64.1239 17.852C64.2193 17.9682 66.9987 20.9257 70.3005 24.4241L76.3035 30.785H77.0377H77.7718V20.9538V11.1226H75.9754H74.1791L74.2116 17.6534L74.2441 24.1844L73.4492 23.3555C73.012 22.8997 70.2336 19.9482 67.2752 16.7966L61.896 11.0664L61.1594 11.0331L60.4228 11V20.8363ZM52.0328 11.263C52.0025 11.3403 51.9912 15.7264 52.0076 21.01L52.0374 30.6165L53.8012 30.6475L55.5651 30.6785V20.9005V11.1226H53.8266C52.5422 11.1226 52.0736 11.1593 52.0328 11.263ZM89.1064 18.2368C89.1064 26.2598 89.1174 26.1432 88.2799 27.0258C87.6493 27.6905 86.9938 27.9211 85.7523 27.9153C84.5922 27.9098 83.5783 27.6178 82.6436 27.0197C82.3067 26.8042 81.9965 26.6295 81.9544 26.6315C81.9122 26.6334 81.5195 27.2171 81.0818 27.9284C80.3213 29.1645 80.2956 29.2292 80.5035 29.3864C80.9297 29.7087 82.8144 30.562 83.4969 30.7415C84.5649 31.0225 86.9303 31.0776 87.9999 30.8464C90.4748 30.3115 91.9972 28.8035 92.509 26.3797C92.6646 25.6431 92.6919 24.4383 92.6919 18.3181V11.1226H90.8992H89.1064V18.2368ZM97.2026 20.8976V30.6726H98.9953H100.788V26.7963V22.92H104.836H108.884V21.4032V19.8864H104.836H100.788V17.0775V14.2686H105.357H109.925V12.6956V11.1226H103.564H97.2026V20.8976ZM141.269 12.6956V14.2686H145.895H150.52L149.981 15.0832C149.684 15.5312 147.472 19.0042 145.066 22.8008C141.085 29.0819 140.691 29.7476 140.691 30.1883V30.6726H148.212H155.733L155.701 29.0716L155.669 27.4705H150.79H145.912L146.125 27.1334C146.243 26.948 148.425 23.5125 150.975 19.4989C155.392 12.5457 155.611 12.1759 155.611 11.662V11.1226H148.44H141.269V12.6956ZM132.424 17.5288C132.108 17.5832 131.626 17.7105 131.354 17.8115C130.681 18.0611 129.593 18.8567 129.242 19.3553L128.954 19.764L128.606 18.786L128.257 17.8078H127.159H126.06L126.03 24.2402L126 30.6726H127.678H129.356V26.8168C129.356 22.3108 129.388 22.1108 130.259 21.2386C130.664 20.8331 130.962 20.6492 131.43 20.5154C132.938 20.0844 134.009 20.4619 134.497 21.5962C134.649 21.9494 134.676 22.6835 134.676 26.3433V30.6726H136.361H138.046L138.005 25.9256C137.965 21.3802 137.952 21.1467 137.706 20.4304C137.072 18.5809 135.796 17.6441 133.693 17.483C133.312 17.4538 132.741 17.4743 132.424 17.5288ZM163.306 17.5331C160.57 17.9459 158.54 19.5566 157.731 21.9562C157.337 23.1261 157.284 25.1568 157.619 26.2297C158.354 28.5764 160.198 30.2956 162.564 30.8372C163.513 31.0545 165.407 31.0542 166.357 30.8366C169.382 30.1438 171.38 27.7612 171.544 24.6517C171.696 21.7566 170.33 19.3687 167.871 18.2279C167.33 17.977 166.627 17.72 166.309 17.6566C165.397 17.4748 164.058 17.4197 163.306 17.5331ZM180.859 17.528C179.901 17.664 178.82 18.2205 178.038 18.9804C177.633 19.3737 177.323 19.597 177.292 19.5173C177.264 19.4423 177.118 19.0269 176.969 18.5943L176.698 17.8078L175.581 17.7757L174.463 17.7435V24.2111V30.6788L176.112 30.6476L177.76 30.6165L177.818 26.5154C177.873 22.5921 177.886 22.395 178.124 21.965C178.647 21.0185 179.417 20.5051 180.498 20.3819C181.769 20.2372 182.737 20.7992 183.006 21.8378C183.093 22.1717 183.138 23.7701 183.138 26.509V30.6726H184.827H186.515L186.461 25.9817C186.403 20.9549 186.384 20.7781 185.768 19.601C185.415 18.9263 184.584 18.1507 183.898 17.8558C183.625 17.7387 183.043 17.5925 182.605 17.531C181.722 17.407 181.712 17.407 180.859 17.528ZM194.932 17.5292C192.357 17.9148 190.353 19.5679 189.525 21.9893C189.271 22.7306 189.225 23.0692 189.222 24.2121C189.219 25.1984 189.274 25.7414 189.427 26.2345C190.09 28.3757 191.657 29.9751 193.779 30.6769C194.315 30.8544 194.915 30.9418 195.873 30.9824C197.433 31.0485 198.505 30.8652 199.656 30.3365C200.486 29.9553 201.412 29.3613 201.412 29.2104C201.412 29.1538 201.123 28.6757 200.769 28.1481L200.125 27.1889L199.638 27.5141C198.938 27.9824 198.352 28.1946 197.409 28.322C195.35 28.6002 193.518 27.7778 192.783 26.246C192.278 25.1913 191.876 25.2795 197.188 25.2795H201.87L201.946 24.9883C202.097 24.4019 201.91 21.9972 201.66 21.3141C200.947 19.3703 199.497 18.0296 197.698 17.6532C196.882 17.4825 195.621 17.426 194.932 17.5292ZM115.831 17.6487C114.539 17.8004 111.995 18.5446 111.616 18.8817C111.558 18.9329 111.704 19.4915 111.951 20.1653C112.309 21.1401 112.423 21.3433 112.574 21.2767C112.676 21.232 113.279 21.0176 113.915 20.8004C114.972 20.4395 115.187 20.4048 116.402 20.3987C117.615 20.3926 117.777 20.4167 118.236 20.672C118.836 21.0059 119.178 21.5862 119.178 22.2714V22.7552L117.646 22.7595C114.361 22.7686 112.093 23.7682 111.221 25.5919C110.961 26.1361 110.913 26.3895 110.912 27.2458C110.91 28.5222 111.197 29.2137 112.034 29.9445C112.776 30.5929 113.743 30.8973 115.06 30.8973C116.715 30.8973 118.045 30.4147 119.127 29.4206L119.731 28.8657L119.975 29.6461C120.109 30.0755 120.219 30.482 120.219 30.5496C120.219 30.6305 120.615 30.6726 121.376 30.6726H122.532L122.53 26.2626C122.528 21.4809 122.457 20.7502 121.907 19.8391C121.557 19.2579 120.746 18.5196 120.115 18.2067C119.085 17.6962 117.35 17.4703 115.831 17.6487ZM197.031 20.2845C197.98 20.6096 198.704 21.5365 198.832 22.5906L198.9 23.1447H195.703C192.041 23.1447 192.273 23.2315 192.837 22.0729C193.219 21.2877 194.015 20.5453 194.741 20.2952C195.382 20.0747 196.405 20.07 197.031 20.2845ZM165.855 20.5241C166.245 20.6529 166.632 20.9137 167.081 21.3493C167.639 21.8908 167.776 22.1084 167.993 22.8035C168.539 24.5496 168.052 26.4653 166.822 27.4099C166.071 27.9865 165.57 28.1411 164.459 28.1399C163.245 28.1385 162.53 27.8381 161.739 26.998C159.903 25.0463 160.604 21.5001 163.013 20.553C163.695 20.2847 165.088 20.2705 165.855 20.5241ZM119.041 24.9028C119.283 24.9657 119.302 25.0177 119.235 25.435C119.042 26.6579 118.492 27.5632 117.627 28.082C116.744 28.6125 115.172 28.6017 114.579 28.0609C114.027 27.5565 114.007 26.4826 114.539 25.8259C114.81 25.4915 115.649 25.0761 116.309 24.95C116.907 24.8356 118.666 24.8053 119.041 24.9028Z" fill="white"/>
<path fill-rule="evenodd" clip-rule="evenodd" d="M28.4065 0.0857473C25.8042 0.529242 23.5677 2.43819 22.6719 4.98061C22.3152 5.99291 22.2745 6.35745 22.2449 8.80432L22.2176 11.0546L21.9668 11.167C21.1841 11.518 20.4401 12.2633 20.0524 13.0847C19.7269 13.7745 19.6474 14.1282 19.6492 14.8792C19.6517 15.9623 20.0248 16.8786 20.7774 17.6498C21.2659 18.1504 21.7453 18.4585 22.3976 18.6909C22.791 18.8313 22.9226 18.8482 23.622 18.8489C24.3509 18.8496 24.4403 18.837 24.9057 18.6685C25.9257 18.2992 26.7432 17.5647 27.1915 16.6148C27.5128 15.9339 27.595 15.5742 27.595 14.8498C27.595 14.1191 27.513 13.7659 27.1788 13.0582C26.9563 12.5869 26.8399 12.4252 26.4154 11.9978C26.0399 11.6197 25.801 11.4356 25.4611 11.2623L25.0076 11.0312L25.028 8.79262C25.0509 6.27514 25.0561 6.24055 25.5421 5.28913C26.8914 2.6484 30.3467 1.95592 32.6055 3.87352C33.3409 4.49781 33.9075 5.42645 34.1284 6.3694C34.2429 6.85778 34.2447 7.0314 34.2294 16.1827C34.212 26.5871 34.2485 25.6915 33.804 26.6287C32.9089 28.5157 30.7051 29.5826 28.6026 29.1468C28.0032 29.0226 27.106 28.5609 26.6499 28.1419C26.4479 27.9563 23.1803 24.2536 19.3885 19.9137C14.9843 14.8727 12.3499 11.903 12.0941 11.6909C9.48556 9.52752 6.02619 9.36625 3.16776 11.2747C2.61557 11.6434 1.60116 12.6815 1.22663 13.2612C0.646007 14.1599 0.268288 15.1207 0.0904553 16.1515C0.0115799 16.6086 0.000320288 17.8324 0.00014617 25.9765C-2.79481e-05 36.1721 -0.0152923 35.6944 0.346699 36.8397C0.71194 37.9954 1.35281 39.0195 2.26484 39.9046C3.39544 41.0019 4.68003 41.6571 6.20843 41.9162C7.36696 42.1126 8.89147 41.956 9.98273 41.5284C11.3651 40.9868 12.6859 39.9165 13.4861 38.6893C13.9056 38.046 14.1274 37.5848 14.3685 36.8546C14.6916 35.8758 14.7412 35.3661 14.7416 33.0239L14.7419 30.9589L15.1627 30.7465C17.073 29.7823 17.8898 27.4184 16.9893 25.4598C15.8966 23.0829 12.9661 22.3679 10.904 23.9751C10.3199 24.4303 9.89079 25.042 9.60164 25.8318C9.39357 26.4 9.3371 27.4706 9.48406 28.0601C9.78667 29.2739 10.5708 30.2507 11.6856 30.8026L12.0246 30.9704L11.999 33.1179C11.9708 35.4839 11.9539 35.6174 11.5775 36.4523C10.9836 37.7698 9.81018 38.758 8.43418 39.0994C7.85077 39.2441 6.77617 39.2302 6.19427 39.0705C4.4196 38.5833 3.04338 37.0203 2.78754 35.2016C2.74053 34.8672 2.72724 32.1816 2.74041 25.6753C2.75788 17.0438 2.76386 16.5967 2.86688 16.2324C3.11825 15.3435 3.52493 14.6595 4.16725 14.0452C4.67509 13.5596 5.22409 13.2302 5.92863 12.9884C6.39689 12.8277 6.57524 12.7984 7.22836 12.7744C7.86836 12.7509 8.06128 12.7659 8.4762 12.8713C9.06577 13.0209 9.67309 13.3138 10.1541 13.6803C10.399 13.867 12.6384 16.3879 17.4047 21.8426C21.1976 26.1834 24.4718 29.8967 24.6807 30.0946C25.6171 30.9818 26.9381 31.6581 28.2491 31.9215C29.03 32.0784 30.3298 32.0643 31.1043 31.8906C34.1261 31.2129 36.2842 29.0001 36.8973 25.9508C36.993 25.4747 37 24.7984 37 15.997C37 7.01581 36.9947 6.52978 36.8923 6.0571C36.6686 5.02514 36.3355 4.19852 35.8223 3.4016C34.4275 1.23555 32.1184 -0.0208021 29.571 0.000260678C29.1879 0.00343774 28.6639 0.0418567 28.4065 0.0857473ZM24.0736 13.6762C24.7289 13.9536 25.041 14.7803 24.7264 15.4053C24.1373 16.5759 22.4098 16.1499 22.4044 14.8327C22.4008 13.9596 23.2893 13.3441 24.0736 13.6762ZM14.0177 26.0847C14.7993 26.5491 14.7943 27.7462 14.0088 28.2128C13.6254 28.4406 13.2644 28.4613 12.8696 28.2781C11.8978 27.8271 11.8855 26.4855 12.8489 26.0189C13.2249 25.8368 13.6396 25.8602 14.0177 26.0847Z" fill="url(#paint0_linear_7_786)"/>
<defs>
<linearGradient id="paint0_linear_7_786" x1="0.000121813" y1="21.0018" x2="62.6033" y2="21.0018" gradientUnits="userSpaceOnUse">
<stop stop-color="#0082FA"/>
<stop offset="1" stop-color="#00F2FE"/>
</linearGradient>
</defs>
</svg>
