<svg width="64" height="40" viewBox="0 0 64 40" fill="none" xmlns="http://www.w3.org/2000/svg">
<path id="image 627 (Traced)" fill-rule="evenodd" clip-rule="evenodd" d="M34.1436 0.289C30.2905 1.18676 27.0366 3.04467 24.2541 5.9355C20.272 10.0726 18.5924 14.586 18.7463 20.7369L18.8258 23.9148L9.38348 28.7413C4.19012 31.3961 -0.0323217 33.5951 0.000186457 33.6284C0.0324538 33.6617 1.9579 33.3684 4.27874 32.9768C10.2053 31.9769 15.8697 31.5665 18.747 31.9286C22.0484 32.3439 22.6726 32.5952 24.3319 34.1762C28.5859 38.2296 32.8048 40 38.2103 40C42.7498 40 46.2077 38.8058 49.9941 35.9302C53.1517 33.5322 55.5289 30.0521 56.8988 25.8213C57.5198 23.9035 57.5784 23.41 57.5863 20.0254C57.5935 16.8467 57.5174 16.074 57.046 14.5377C56.7442 13.5541 56.4076 12.7496 56.298 12.7496C56.1885 12.7496 55.5684 13.1568 54.9204 13.6545C54.2722 14.1522 53.7056 14.587 53.661 14.6211C53.6167 14.6549 53.7626 15.7738 53.9854 17.1074C55.3473 25.2588 50.82 32.9136 43.0393 35.615C40.711 36.4233 36.5788 36.5397 34.1166 35.8664C30.5169 34.8818 27.4765 32.7267 25.1815 29.5322L24.0377 27.9404L21.7929 28.0097C20.3854 28.0534 19.638 27.9927 19.789 27.8475C20.0748 27.5727 28.7663 23.0117 39.6551 17.4231C43.9594 15.214 48.1313 12.918 48.9259 12.3212C49.7205 11.7243 51.7794 10.2102 53.5011 8.95607C63.3699 1.76907 64.491 0.93297 63.8556 1.23584C63.7231 1.29898 59.5192 3.41586 54.5137 5.94019C49.5079 8.46452 45.297 10.5299 45.1559 10.5299C45.0148 10.5299 44.1092 10.1298 43.1431 9.64073C40.6857 8.3967 38.3405 8.06423 36.0298 8.63248C33.5931 9.23131 31.831 10.1974 30.2831 11.7828C28.6502 13.4552 27.6844 15.3906 27.1837 17.9931L26.8083 19.9447L24.6589 21.0324C23.4766 21.6305 22.4298 22.0697 22.3328 22.0083C22.0443 21.8256 22.0323 19.0514 22.313 17.3836C23.3557 11.1913 27.4477 6.24109 33.1773 4.24111C34.984 3.61046 35.5222 3.53548 38.2103 3.53968C40.8822 3.54412 41.423 3.62032 43.0263 4.21916C44.0196 4.5901 45.0076 4.94994 45.2217 5.019C45.6187 5.14676 48.6625 3.81393 48.91 3.40378C49.1214 3.05331 46.6113 1.71505 44.159 0.871063C42.2314 0.20761 41.5348 0.0966247 38.8123 0.0191807C36.6552 -0.0419852 35.2036 0.0418699 34.1436 0.289ZM39.3184 22.6829L29.7109 27.6489L30.6782 28.5282C33.3509 30.9573 37.2603 32.0183 40.6183 31.2264C44.4944 30.3119 48.0205 26.8244 49.0408 22.8955C49.3668 21.6408 49.4282 18.2193 49.1301 17.9211C49.0179 17.8086 44.6026 19.9514 39.3184 22.6829Z" fill="url(#paint0_linear_172_1450)"/>
<defs>
<linearGradient id="paint0_linear_172_1450" x1="1.29137e-06" y1="-3.45292" x2="84.9851" y2="42.908" gradientUnits="userSpaceOnUse">
<stop stop-color="#A619F4"/>
<stop offset="1" stop-color="#6100FD"/>
</linearGradient>
</defs>
</svg>
