<svg width="38" height="38" viewBox="0 0 38 38" fill="none" xmlns="http://www.w3.org/2000/svg">
<g clip-path="url(#clip0_46_261)">
<path d="M19.0014 36.6436V1.01855" stroke="white" stroke-width="1.7" stroke-miterlimit="10" stroke-linejoin="round"/>
<path d="M36.7563 19H1.13129" stroke="white" stroke-width="1.7" stroke-miterlimit="10" stroke-linejoin="round"/>
<path d="M17.5303 1.69727C17.5303 1.69727 0.452876 16.5127 17.5303 36.0782" stroke="white" stroke-width="1.7" stroke-miterlimit="10" stroke-linejoin="round"/>
<path d="M20.3562 1.69727C20.3562 1.69727 37.4335 16.5127 20.3562 36.0782" stroke="white" stroke-width="1.7" stroke-miterlimit="10" stroke-linejoin="round"/>
<path d="M19 2.82738C27.9344 2.82738 35.1727 10.0655 35.1727 19C35.1727 27.9344 27.9344 35.1727 19 35.1727C10.0655 35.1727 2.82738 27.9344 2.82738 19C2.82738 10.0655 10.0655 2.82738 19 2.82738ZM19 0C8.48214 0 0 8.48214 0 19C0 29.5179 8.48214 38 19 38C29.5179 38 38 29.5179 38 19C37.8869 8.48214 29.4048 0 19 0Z" fill="white"/>
<mask id="mask0_46_261" style="mask-type:luminance" maskUnits="userSpaceOnUse" x="0" y="0" width="38" height="38">
<path d="M19 2.82738C27.9344 2.82738 35.1727 10.0655 35.1727 19C35.1727 27.9344 27.9344 35.1727 19 35.1727C10.0655 35.1727 2.82738 27.9344 2.82738 19C2.82738 10.0655 10.0655 2.82738 19 2.82738ZM19 0C8.48214 0 0 8.48214 0 19C0 29.5179 8.48214 38 19 38C29.5179 38 38 29.5179 38 19C37.8869 8.48214 29.4048 0 19 0Z" fill="white"/>
</mask>
<g mask="url(#mask0_46_261)">
<path d="M37.9999 19.0002H41.1359V18.9834L41.1357 18.9664L37.9999 19.0002ZM18.9999 5.96349C26.2026 5.96349 32.0367 11.7976 32.0367 19.0002H38.3086C38.3086 8.33373 29.6663 -0.308361 18.9999 -0.308361V5.96349ZM32.0367 19.0002C32.0367 26.2028 26.2026 32.0369 18.9999 32.0369V38.3088C29.6663 38.3088 38.3086 29.6666 38.3086 19.0002H32.0367ZM18.9999 32.0369C11.7973 32.0369 5.96324 26.2028 5.96324 19.0002H-0.308605C-0.308605 29.6666 8.33347 38.3088 18.9999 38.3088V32.0369ZM5.96324 19.0002C5.96324 11.7976 11.7973 5.96349 18.9999 5.96349V-0.308361C8.33347 -0.308361 -0.308605 8.33373 -0.308605 19.0002H5.96324ZM18.9999 -3.13574C6.75014 -3.13574 -3.13599 6.7504 -3.13599 19.0002H3.13586C3.13586 10.2142 10.214 3.1361 18.9999 3.1361V-3.13574ZM-3.13599 19.0002C-3.13599 31.25 6.75014 41.1361 18.9999 41.1361V34.8643C10.214 34.8643 3.13586 27.7861 3.13586 19.0002H-3.13599ZM18.9999 41.1361C31.2498 41.1361 41.1359 31.25 41.1359 19.0002H34.864C34.864 27.7861 27.7859 34.8643 18.9999 34.8643V41.1361ZM41.1357 18.9664C41.0043 6.76163 31.155 -3.13574 18.9999 -3.13574V3.1361C27.6543 3.1361 34.7692 10.203 34.8642 19.0339L41.1357 18.9664Z" fill="white"/>
</g>
</g>
<defs>
<clipPath id="clip0_46_261">
<rect width="38" height="38" fill="white"/>
</clipPath>
</defs>
</svg>
