<svg width="67" height="54" viewBox="0 0 67 54" fill="none" xmlns="http://www.w3.org/2000/svg">
<mask id="mask0_172_1409" style="mask-type:luminance" maskUnits="userSpaceOnUse" x="0" y="0" width="67" height="54">
<path d="M67 0H0V54H67V0Z" fill="white"/>
</mask>
<g mask="url(#mask0_172_1409)">
<path d="M36.6186 1.30859L25.8208 6.03779L13.4805 21.9024L1.3078 28.5769C1.3078 28.5769 11.1667 51.5185 29.8448 51.9545C54.8608 52.5583 65.6922 40.4167 65.6922 40.4167C65.6922 40.4167 49.9985 28.5098 49.3278 27.1682C48.6572 25.8266 36.6186 1.30859 36.6186 1.30859Z" fill="white"/>
<path fill-rule="evenodd" clip-rule="evenodd" d="M12.2801 21.5294C18.0168 19.8137 25.3139 18.8485 33.3286 20.0725C34.0426 20.1816 34.533 20.8489 34.424 21.563C34.3149 22.2772 33.6478 22.7677 32.9338 22.6586C25.3552 21.5013 18.451 22.4144 13.0294 24.0359C7.56188 25.6712 3.73435 27.9849 2.23707 29.4972C1.72884 30.0105 0.900784 30.0145 0.38757 29.5062C-0.125646 28.9979 -0.129685 28.1697 0.378548 27.6563C2.30169 25.7139 6.5893 23.2314 12.2801 21.5294Z" fill="black"/>
<path d="M47.5499 50.1763L25.8202 6.03711L5.96832 35.5526" fill="white"/>
<path fill-rule="evenodd" clip-rule="evenodd" d="M25.9083 4.73246C26.3739 4.76386 26.7875 5.041 26.9937 5.45973L48.7234 49.5988C49.0425 50.247 48.7758 51.0311 48.1278 51.3502C47.4798 51.6693 46.6959 51.4027 46.3768 50.7545L25.6448 8.6421L7.05363 36.2832C6.65048 36.8827 5.83783 37.0416 5.23854 36.6385C4.63924 36.2352 4.48025 35.4224 4.88341 34.8229L24.7353 5.30744C24.9957 4.92018 25.4428 4.70106 25.9083 4.73246Z" fill="black"/>
<path fill-rule="evenodd" clip-rule="evenodd" d="M36.0937 0.110114C36.7348 -0.17068 37.4833 0.103142 37.792 0.731406L58.9852 43.8643C59.3037 44.5126 59.0365 45.2966 58.3883 45.6152C57.74 45.9338 56.9563 45.6665 56.6377 45.0181L35.9965 3.00865L26.3451 7.23579C25.6834 7.52554 24.9122 7.22398 24.6225 6.56223C24.3328 5.90047 24.6342 5.12908 25.2959 4.83931L36.0937 0.110114Z" fill="black"/>
<path d="M37.4905 17.172C38.4535 17.172 39.2342 16.3914 39.2342 15.4283C39.2342 14.4653 38.4535 13.6846 37.4905 13.6846C36.5274 13.6846 35.7467 14.4653 35.7467 15.4283C35.7467 16.3914 36.5274 17.172 37.4905 17.172Z" fill="black"/>
<path d="M42.9899 28.5764C43.953 28.5764 44.7337 27.7957 44.7337 26.8326C44.7337 25.8696 43.953 25.0889 42.9899 25.0889C42.0269 25.0889 41.2462 25.8696 41.2462 26.8326C41.2462 27.7957 42.0269 28.5764 42.9899 28.5764Z" fill="black"/>
<path d="M48.4562 39.9455C49.4193 39.9455 50.2 39.1647 50.2 38.2017C50.2 37.2387 49.4193 36.458 48.4562 36.458C47.4932 36.458 46.7125 37.2387 46.7125 38.2017C46.7125 39.1647 47.4932 39.9455 48.4562 39.9455Z" fill="black"/>
<path d="M35.4118 51.6189C31.589 49.0027 25.8212 42.8648 25.8212 42.8648C25.8212 42.8648 31.3207 34.4462 29.5099 28.0735C27.6991 21.7009 24.9493 21.03 23.3397 22.1369C19.148 25.0884 20.0534 35.0499 18.1085 35.8884C16.1635 36.727 9.89276 41.5568 9.89276 41.5568C9.89276 41.5568 24.681 52.6586 34.0034 52.9605C43.3257 53.2624 35.4118 51.6189 35.4118 51.6189Z" fill="#13EA5B"/>
<path fill-rule="evenodd" clip-rule="evenodd" d="M48.1943 26.514C48.5552 25.8883 49.355 25.6736 49.9807 26.0346C55.3082 29.1088 61.4626 33.6544 66.6715 39.5499C67.1497 40.0913 67.0988 40.9179 66.5575 41.3963C66.0163 41.8747 65.1898 41.8237 64.7115 41.2823C59.7262 35.6399 53.8085 31.2637 48.6736 28.3007C48.048 27.9397 47.8334 27.1398 48.1943 26.514Z" fill="black"/>
<path fill-rule="evenodd" clip-rule="evenodd" d="M1.17531 27.2744C1.89388 27.2012 2.53575 27.7244 2.60898 28.4431C2.62287 28.5795 2.70057 28.8948 2.9186 29.4124C3.12724 29.9077 3.43436 30.5184 3.84352 31.2226C4.66112 32.6298 5.85609 34.3585 7.40146 36.2094C10.4949 39.9144 14.9391 44.0451 20.469 47.0564C25.989 50.0624 32.5707 51.9438 39.9883 51.2062C47.4039 50.4688 55.7717 47.1025 64.8473 39.4172C65.3985 38.9504 66.2237 39.0189 66.6904 39.5703C67.1571 40.1216 67.0886 40.9471 66.5373 41.4138C57.1359 49.3751 48.2843 53.0103 40.2472 53.8095C32.2122 54.6085 25.1079 52.5614 19.2182 49.3541C13.3383 46.1521 8.6487 41.7845 5.39387 37.8863C3.76509 35.9355 2.48225 34.0865 1.58204 32.5371C1.1323 31.7631 0.770516 31.0509 0.508211 30.4282C0.255296 29.8278 0.0600127 29.2303 0.00683968 28.7084C-0.0663895 27.9897 0.456755 27.3476 1.17531 27.2744Z" fill="black"/>
<path fill-rule="evenodd" clip-rule="evenodd" d="M23.3373 24.2755C22.5898 25.025 21.8689 26.1096 21.3166 27.3596C20.8065 28.5233 20.5434 29.672 20.29 30.8953C20.2671 31.0062 20.2441 31.1181 20.2209 31.2312C19.9952 32.3316 19.7501 33.5268 19.2976 34.693C18.2386 37.4221 16.1261 39.8238 11.1438 41.9545C10.4797 42.2385 9.71113 41.9303 9.42717 41.266C9.14322 40.6017 9.45142 39.833 10.1155 39.549C14.6233 37.6213 16.1156 35.6628 16.8591 33.7465C17.2278 32.7962 17.4297 31.8158 17.6639 30.679C17.6852 30.5755 17.7069 30.4707 17.7288 30.3645C17.9856 29.1251 18.2926 27.7422 18.922 26.307L18.9234 26.3039C19.5783 24.8211 20.4667 23.4494 21.4857 22.4278C22.4752 21.4356 23.7549 20.6126 25.1809 20.6192C26.7293 20.6262 27.9722 21.5934 28.8235 23.1613C29.6564 24.6955 30.2192 26.9585 30.477 30.0441C30.9872 36.1498 30.1117 39.6372 28.4601 41.5618C27.8473 42.2758 27.1679 42.7296 26.4984 43.0156C26.8206 43.2262 27.174 43.4597 27.562 43.7215C30.2188 45.5143 33.8769 48.2401 36.4958 51.7798C36.9254 52.3606 36.803 53.1797 36.2225 53.6094C35.6419 54.0392 34.8229 53.9168 34.3932 53.3361C32.0492 50.1678 28.6988 47.6445 26.0992 45.8903C25.4862 45.4767 24.8676 45.0757 24.3259 44.7245C23.7956 44.3808 23.3391 44.0849 23.0341 43.8719C22.8628 43.7522 22.6958 43.6299 22.5539 43.5111C22.4492 43.4236 22.2193 43.2278 22.0625 42.9546C21.9839 42.8177 21.8154 42.4778 21.8861 42.03C21.9701 41.4978 22.3243 41.1797 22.6014 41.0322C22.84 40.9052 23.0655 40.873 23.1786 40.8612C23.3107 40.8476 23.4355 40.8489 23.5373 40.8539C24.509 40.9017 25.6093 40.867 26.4754 39.8578C27.4142 38.7638 28.3663 36.1972 27.8705 30.2619C27.6253 27.327 27.1066 25.4813 26.5249 24.4098C25.9615 23.3721 25.4564 23.2366 25.1689 23.2353C24.7589 23.2334 24.1146 23.4963 23.3373 24.2755ZM24.1942 41.4704C24.1942 41.4704 24.1994 41.4749 24.2075 41.4832C24.1978 41.4746 24.1942 41.4704 24.1942 41.4704Z" fill="black"/>
<path d="M22.3331 36.795C22.9703 33.9776 34.1705 31.2944 33.701 40.4844C33.2315 49.6745 19.5834 48.9031 22.3331 36.795Z" fill="#FFF800"/>
<path fill-rule="evenodd" clip-rule="evenodd" d="M23.6095 37.0826C23.6086 37.0849 23.609 37.0846 23.6095 37.0826L23.6087 37.0842C22.9725 39.8856 23.3217 41.8583 24.0285 43.1394C24.7311 44.4126 25.85 45.1261 27.0397 45.3382C29.3976 45.7587 32.2009 44.2199 32.3952 40.4172C32.4988 38.389 31.9568 37.2299 31.2867 36.5579C30.5931 35.8624 29.5709 35.4966 28.3741 35.4432C27.1778 35.3898 25.9341 35.6586 24.9763 36.085C24.499 36.2976 24.1337 36.5311 23.892 36.7456C23.6671 36.9452 23.6161 37.0669 23.6095 37.0826ZM33.1387 34.7104C34.4565 36.0321 35.1385 37.9838 35.0073 40.5506C34.7322 45.9381 30.4765 48.6085 26.5805 47.9138C24.6431 47.5683 22.8363 46.3931 21.7385 44.4034C20.645 42.4216 20.3193 39.7574 21.0581 36.5047C21.2212 35.7849 21.6798 35.2113 22.1561 34.7886C22.6469 34.3531 23.2576 33.9866 23.9125 33.695C25.2193 33.1132 26.8657 32.7572 28.4905 32.8296C30.1147 32.902 31.8443 33.4124 33.1387 34.7104Z" fill="black"/>
</g>
</svg>
