<svg width="38" height="38" viewBox="0 0 38 38" fill="none" xmlns="http://www.w3.org/2000/svg">
<g id="Frame" clip-path="url(#clip0_203_236)">
<path id="Vector" d="M38 19C38 29.4934 29.4934 38 19 38C8.50659 38 0 29.4934 0 19C0 8.50659 8.50659 0 19 0C29.4934 0 38 8.50659 38 19ZM19.681 14.0267C17.8329 14.7954 14.1395 16.3863 8.60059 18.7994C7.70116 19.1571 7.23001 19.507 7.18711 19.8492C7.11463 20.4274 7.83872 20.6551 8.82477 20.9651C8.9589 21.0074 9.09787 21.0511 9.24033 21.0973C10.2104 21.4127 11.5154 21.7816 12.1938 21.7962C12.8092 21.8095 13.496 21.5558 14.2543 21.0352C19.4294 17.5418 22.1008 15.776 22.2686 15.738C22.3869 15.7111 22.5509 15.6774 22.6619 15.7762C22.7731 15.8748 22.7622 16.0618 22.7504 16.112C22.6787 16.4179 19.8363 19.0603 18.3654 20.4279C17.9069 20.8541 17.5815 21.1565 17.515 21.2257C17.3662 21.3804 17.2143 21.5267 17.0683 21.6673C16.1671 22.5361 15.4913 23.1876 17.1059 24.2516C17.8817 24.7629 18.5025 25.1858 19.1219 25.6076C19.7983 26.0682 20.473 26.5277 21.346 27.0999C21.5683 27.2455 21.7808 27.3971 21.9876 27.5445C22.7748 28.1058 23.4821 28.6099 24.3558 28.5295C24.8636 28.4828 25.388 28.0054 25.6543 26.5816C26.2838 23.2167 27.521 15.926 27.807 12.9216C27.832 12.6584 27.8005 12.3215 27.7752 12.1737C27.7498 12.0258 27.6969 11.8151 27.5047 11.6591C27.2772 11.4744 26.9257 11.4355 26.7685 11.4382C26.0539 11.4508 24.9575 11.832 19.681 14.0267Z" fill="white"/>
</g>
<defs>
<clipPath id="clip0_203_236">
<rect width="38" height="38" fill="white"/>
</clipPath>
</defs>
</svg>
