<svg width="38" height="38" viewBox="0 0 38 38" fill="none" xmlns="http://www.w3.org/2000/svg">
<path d="M38 6.79382C36.6342 7.43789 35.1726 7.8699 33.637 8.06627C35.202 7.06873 36.4128 5.48208 36.9738 3.59696C35.512 4.52381 33.8807 5.19145 32.1533 5.55278C30.7653 3.98183 28.7943 3 26.6166 3C22.4233 3 19.0201 6.61316 19.0201 11.0746C19.0201 11.703 19.0866 12.3235 19.2194 12.9126C12.915 12.5906 7.31923 9.37015 3.57641 4.48453C2.9194 5.67845 2.55028 7.06873 2.55028 8.54539C2.55028 11.3495 3.88647 13.8159 5.92397 15.269C4.67638 15.2297 3.50998 14.8606 2.48385 14.2558V14.3579C2.48385 18.2695 5.10455 21.537 8.5742 22.2833C7.93934 22.4639 7.26755 22.5661 6.57361 22.5661C6.08639 22.5661 5.60654 22.5189 5.14146 22.4167C6.10853 25.6215 8.91381 27.9621 12.2358 28.025C9.63726 30.1929 6.36692 31.481 2.80866 31.481C2.19592 31.481 1.59058 31.4417 1 31.371C4.35893 33.6646 8.34536 35 12.6345 35C26.5944 35 34.2351 22.6916 34.2351 12.025C34.2351 11.6716 34.2276 11.326 34.2129 10.9804C35.6967 9.84143 36.9813 8.41972 38 6.80166V6.79382Z" fill="white"/>
</svg>
