<svg width="38" height="38" viewBox="0 0 38 38" fill="none" xmlns="http://www.w3.org/2000/svg">
<g id="Frame" clip-path="url(#clip0_203_242)">
<g id="Group 10074">
<g id="Group 10073">
<path id="Vector" d="M19.0014 36.6431V1.01807" stroke="white" stroke-width="1.7" stroke-miterlimit="10" stroke-linejoin="round"/>
<path id="Vector_2" d="M36.7563 19H1.13129" stroke="white" stroke-width="1.7" stroke-miterlimit="10" stroke-linejoin="round"/>
<path id="Vector_3" d="M17.5303 1.69678C17.5303 1.69678 0.452876 16.5123 17.5303 36.0777" stroke="white" stroke-width="1.7" stroke-miterlimit="10" stroke-linejoin="round"/>
<path id="Vector_4" d="M20.3562 1.69678C20.3562 1.69678 37.4335 16.5123 20.3562 36.0777" stroke="white" stroke-width="1.7" stroke-miterlimit="10" stroke-linejoin="round"/>
<path id="Vector_5" d="M19 2.82738C27.9344 2.82738 35.1727 10.0655 35.1727 19C35.1727 27.9344 27.9344 35.1727 19 35.1727C10.0655 35.1727 2.82738 27.9344 2.82738 19C2.82738 10.0655 10.0655 2.82738 19 2.82738ZM19 0C8.48214 0 0 8.48214 0 19C0 29.5179 8.48214 38 19 38C29.5179 38 38 29.5179 38 19C37.8869 8.48214 29.4048 0 19 0Z" fill="white"/>
</g>
<g id="Mask group">
<mask id="mask0_203_242" style="mask-type:luminance" maskUnits="userSpaceOnUse" x="0" y="0" width="38" height="38">
<g id="Group">
<path id="Vector_6" d="M19 2.82738C27.9344 2.82738 35.1727 10.0655 35.1727 19C35.1727 27.9344 27.9344 35.1727 19 35.1727C10.0655 35.1727 2.82738 27.9344 2.82738 19C2.82738 10.0655 10.0655 2.82738 19 2.82738ZM19 0C8.48214 0 0 8.48214 0 19C0 29.5179 8.48214 38 19 38C29.5179 38 38 29.5179 38 19C37.8869 8.48214 29.4048 0 19 0Z" fill="white"/>
</g>
</mask>
<g mask="url(#mask0_203_242)">
<path id="Vector_7" d="M37.9999 18.9997H41.1359V18.9829L41.1357 18.9659L37.9999 18.9997ZM18.9999 5.963C26.2026 5.963 32.0367 11.7971 32.0367 18.9997H38.3086C38.3086 8.33324 29.6663 -0.308849 18.9999 -0.308849V5.963ZM32.0367 18.9997C32.0367 26.2024 26.2026 32.0365 18.9999 32.0365V38.3083C29.6663 38.3083 38.3086 29.6661 38.3086 18.9997H32.0367ZM18.9999 32.0365C11.7973 32.0365 5.96324 26.2024 5.96324 18.9997H-0.308605C-0.308605 29.6661 8.33347 38.3083 18.9999 38.3083V32.0365ZM5.96324 18.9997C5.96324 11.7971 11.7973 5.963 18.9999 5.963V-0.308849C8.33347 -0.308849 -0.308605 8.33324 -0.308605 18.9997H5.96324ZM18.9999 -3.13623C6.75014 -3.13623 -3.13599 6.74991 -3.13599 18.9997H3.13586C3.13586 10.2138 10.214 3.13561 18.9999 3.13561V-3.13623ZM-3.13599 18.9997C-3.13599 31.2495 6.75014 41.1356 18.9999 41.1356V34.8638C10.214 34.8638 3.13586 27.7856 3.13586 18.9997H-3.13599ZM18.9999 41.1356C31.2498 41.1356 41.1359 31.2495 41.1359 18.9997H34.864C34.864 27.7856 27.7859 34.8638 18.9999 34.8638V41.1356ZM41.1357 18.9659C41.0043 6.76115 31.155 -3.13623 18.9999 -3.13623V3.13561C27.6543 3.13561 34.7692 10.2025 34.8642 19.0335L41.1357 18.9659Z" fill="white"/>
</g>
</g>
</g>
</g>
<defs>
<clipPath id="clip0_203_242">
<rect width="38" height="38" fill="white"/>
</clipPath>
</defs>
</svg>
