<svg width="38" height="27" viewBox="0 0 38 27" fill="none" xmlns="http://www.w3.org/2000/svg">
<path d="M19.1238 0.863281C19.1374 0.863312 19.1519 0.863342 19.1675 0.863373L19.3356 0.863874C21.2874 0.87076 31.1796 0.939601 33.8467 1.62795C35.4817 2.04894 36.7692 3.28961 37.2062 4.86448C37.4467 5.72974 37.6144 6.87976 37.7313 8.06252L37.7539 8.29944C37.7723 8.4971 37.7894 8.69522 37.805 8.89261L37.8232 9.12904C37.9794 11.2132 37.9976 13.1635 37.9998 13.5902L37.9999 13.6478C37.9999 13.6525 37.9999 13.6603 37.9999 13.6603V13.6925C37.9999 13.6925 37.9999 13.7003 37.9999 13.705L37.9998 13.7626C37.9976 14.2054 37.9779 16.289 37.805 18.4603L37.7856 18.6974L37.7648 18.9348C37.6472 20.2402 37.4708 21.5366 37.2062 22.4883C36.7692 24.0632 35.4817 25.3041 33.8467 25.7248C31.0906 26.4363 20.6199 26.4862 19.1675 26.4897L19.0557 26.4898C19.0465 26.4898 19.0384 26.4898 19.0315 26.4898L18.9859 26.49C18.9859 26.49 18.9754 26.4898 18.9684 26.4898L18.8324 26.4897C18.0984 26.4879 15.0611 26.4743 11.8804 26.3695L11.4737 26.3556C11.4059 26.3532 11.338 26.3508 11.2701 26.3482L10.863 26.3328L10.4568 26.3163C7.82171 26.2051 5.3093 26.0232 4.15357 25.7248C2.51855 25.3041 1.23108 24.0632 0.794097 22.4883C0.529364 21.5366 0.35287 20.2402 0.235212 18.9348L0.214471 18.6974L0.194964 18.4603C0.028223 16.368 0.0040138 14.3571 0.000494048 13.8173L7.44611e-05 13.7399C4.59611e-05 13.7331 2.05833e-05 13.7266 0 13.7208V13.632C2.05833e-05 13.6261 4.59611e-05 13.6197 7.44611e-05 13.6127L0.000494048 13.5355C0.0036813 13.0467 0.0238372 11.3513 0.151486 9.48142L0.168 9.24686C0.17085 9.20764 0.173747 9.16837 0.176692 9.12904L0.194964 8.89261C0.210702 8.69522 0.227707 8.4971 0.246074 8.29944L0.268779 8.06252C0.385692 6.87976 0.55343 5.72974 0.794097 4.86448C1.23108 3.28961 2.51855 2.04894 4.15357 1.62795C5.3093 1.32966 7.82171 1.1477 10.4568 1.03671L10.863 1.02019L11.2701 1.00476C11.338 1.00227 11.4059 0.999823 11.4737 0.997437L11.8804 0.983544C14.8581 0.885413 17.7102 0.867249 18.6643 0.863874L18.8324 0.863373C18.8481 0.863342 18.8627 0.863312 18.8761 0.863281H19.1238ZM15.2001 8.1848V19.168L25.0723 13.6767L15.2001 8.1848Z" fill="white"/>
</svg>
